<svg xmlns="http://www.w3.org/2000/svg" width="1800" height="720" viewBox="0 0 1800 720" fill="none">
  <defs>
    <linearGradient id="route" x1="0" y1="540" x2="1800" y2="140" gradientUnits="userSpaceOnUse"><stop stop-color="#50dfed"/><stop offset=".5" stop-color="#5291ff"/><stop offset="1" stop-color="#b89cff"/></linearGradient>
    <linearGradient id="floor" x1="900" y1="405" x2="900" y2="720" gradientUnits="userSpaceOnUse"><stop stop-color="#77caff" stop-opacity="0"/><stop offset="1" stop-color="#77caff" stop-opacity=".22"/></linearGradient>
    <radialGradient id="node"><stop stop-color="#c2ffff" stop-opacity=".7"/><stop offset=".22" stop-color="#65ddff" stop-opacity=".27"/><stop offset="1" stop-color="#65ddff" stop-opacity="0"/></radialGradient>
    <filter id="glow" x="-50%" y="-50%" width="200%" height="200%"><feGaussianBlur stdDeviation="7"/></filter>
  </defs>
  <g stroke="url(#floor)" stroke-width="1">
    <path d="M900 405L-750 720M900 405L-320 720M900 405L50 720M900 405L370 720M900 405L650 720M900 405L900 720M900 405L1150 720M900 405L1430 720M900 405L1750 720M900 405L2120 720M900 405L2550 720"/>
    <path d="M0 480H1800M0 512H1800M0 552H1800M0 603H1800M0 665H1800M0 719H1800"/>
  </g>
  <g stroke="#68bff0" opacity=".12">
    <ellipse cx="-110" cy="230" rx="315" ry="235" transform="rotate(-25 -110 230)"/>
    <ellipse cx="-110" cy="230" rx="350" ry="270" transform="rotate(-25 -110 230)"/>
    <ellipse cx="-110" cy="230" rx="385" ry="305" transform="rotate(-25 -110 230)"/>
    <ellipse cx="-110" cy="230" rx="420" ry="340" transform="rotate(-25 -110 230)"/>
  </g>
  <g stroke="#a1a4ff" opacity=".16">
    <ellipse cx="1840" cy="120" rx="380" ry="305" transform="rotate(-30 1840 120)"/>
    <ellipse cx="1840" cy="120" rx="417" ry="342" transform="rotate(-30 1840 120)"/>
    <ellipse cx="1840" cy="120" rx="454" ry="379" transform="rotate(-30 1840 120)"/>
  </g>
  <path d="M-100 640C220 350 385 515 680 594S1220 530 1455 300 1680 125 1900 180" stroke="url(#route)" stroke-width="7" opacity=".25" filter="url(#glow)"/>
  <path d="M-100 640C220 350 385 515 680 594S1220 530 1455 300 1680 125 1900 180" stroke="url(#route)" stroke-width="1.7" opacity=".44"/>
  <path d="M-100 678C220 388 385 553 680 632S1220 568 1455 338 1680 163 1900 218" stroke="url(#route)" stroke-width=".8" opacity=".2"/>
  <g fill="#c4eaff" opacity=".45">
    <circle cx="95" cy="115" r="1.5"/><circle cx="248" cy="67" r="1"/><circle cx="440" cy="144" r="1.2"/><circle cx="672" cy="38" r="1.5"/><circle cx="930" cy="94" r="1"/><circle cx="1164" cy="45" r="1.4"/><circle cx="1360" cy="127" r="1"/><circle cx="1590" cy="71" r="1.7"/><circle cx="1745" cy="286" r="1"/><circle cx="60" cy="357" r="1"/><circle cx="341" cy="633" r="1.4"/><circle cx="1678" cy="572" r="1.2"/><circle cx="1271" cy="659" r="1.3"/>
  </g>
  <circle cx="216" cy="480" r="44" fill="url(#node)"/><circle cx="216" cy="480" r="3" fill="#a0f4ff" opacity=".85"/><circle cx="216" cy="480" r="10" stroke="#8eeeff" opacity=".3"/>
  <circle cx="1455" cy="300" r="39" fill="url(#node)"/><circle cx="1455" cy="300" r="3" fill="#c1d4ff" opacity=".8"/><circle cx="1455" cy="300" r="11" stroke="#b8c9ff" opacity=".35"/>
</svg>
