<svg xmlns="http://www.w3.org/2000/svg" width="1800" height="100" viewBox="0 0 1800 100" fill="none">
  <defs>
    <linearGradient id="flight" x1="0" y1="90" x2="1800" y2="10" gradientUnits="userSpaceOnUse"><stop stop-color="#67e0ed"/><stop offset=".48" stop-color="#79afff"/><stop offset="1" stop-color="#b7a7ff"/></linearGradient>
    <radialGradient id="glow"><stop stop-color="#9aeeff" stop-opacity=".65"/><stop offset=".2" stop-color="#76cbff" stop-opacity=".22"/><stop offset="1" stop-color="#76cbff" stop-opacity="0"/></radialGradient>
  </defs>
  <g stroke="url(#flight)">
    <path d="M-40 84C180 3 255 91 420 43S770 93 995 78 1250 21 1450 40 1660 25 1840 -8" opacity=".45" stroke-width="1.3"/>
    <path d="M-40 98C180 17 255 105 420 57S770 107 995 92 1250 35 1450 54 1660 39 1840 6" opacity=".2" stroke-width=".8"/>
    <path d="M1310 -38C1440 85 1580 113 1810 16M1350 -40C1490 84 1620 101 1840 16" opacity=".15"/>
  </g>
  <g fill="#d6e8ff" opacity=".55"><circle cx="96" cy="22" r="1.1"/><circle cx="278" cy="75" r=".9"/><circle cx="430" cy="17" r=".8"/><circle cx="596" cy="32" r=".9"/><circle cx="704" cy="80" r=".8"/><circle cx="1110" cy="22" r="1"/><circle cx="1367" cy="80" r=".9"/><circle cx="1628" cy="18" r="1.2"/><circle cx="1748" cy="66" r="1"/></g>
  <circle cx="235" cy="48" r="32" fill="url(#glow)"/><circle cx="235" cy="48" r="2" fill="#b3efff" opacity=".8"/>
  <circle cx="1535" cy="45" r="29" fill="url(#glow)"/><circle cx="1535" cy="45" r="1.8" fill="#cdc8ff" opacity=".8"/>
</svg>
